{"asset":{"version":"2.0","generator":"Codex local model-viewer demo"},"scene":0,"scenes":[{"nodes":[0,1,2,3]}],"nodes":[{"mesh":0,"translation":[0,0.05,0],"scale":[0.85,1.25,0.34]},{"mesh":1,"translation":[0,0.98,0],"scale":[0.52,0.52,0.52]},{"mesh":2,"translation":[0,-0.72,0],"scale":[1.18,0.28,0.5]},{"mesh":3,"translation":[0.58,0.18,0],"scale":[0.14,0.74,0.16]}],"meshes":[{"primitives":[{"attributes":{"POSITION":0,"NORMAL":1},"indices":2,"material":0}]},{"primitives":[{"attributes":{"POSITION":0,"NORMAL":1},"indices":2,"material":1}]},{"primitives":[{"attributes":{"POSITION":0,"NORMAL":1},"indices":2,"material":2}]},{"primitives":[{"attributes":{"POSITION":0,"NORMAL":1},"indices":2,"material":3}]}],"materials":[{"name":"matte graphite","pbrMetallicRoughness":{"baseColorFactor":[0.18,0.24,0.31,1],"roughnessFactor":0.8,"metallicFactor":0.1}},{"name":"visor blue","pbrMetallicRoughness":{"baseColorFactor":[0.18,0.52,0.85,1],"roughnessFactor":0.35,"metallicFactor":0.25}},{"name":"warm base","pbrMetallicRoughness":{"baseColorFactor":[0.88,0.67,0.28,1],"roughnessFactor":0.7,"metallicFactor":0.05}},{"name":"control rail","pbrMetallicRoughness":{"baseColorFactor":[0.82,0.16,0.18,1],"roughnessFactor":0.5,"metallicFactor":0.15}}],"buffers":[{"uri":"data:application/octet-stream;base64,","byteLength":648}],"bufferViews":[{"buffer":0,"byteOffset":0,"byteLength":288,"target":34962},{"buffer":0,"byteOffset":288,"byteLength":288,"target":34962},{"buffer":0,"byteOffset":576,"byteLength":72,"target":34963}],"accessors":[{"bufferView":0,"componentType":5126,"count":24,"type":"VEC3","min":[-0.5,-0.5,-0.5],"max":[0.5,0.5,0.5]},{"bufferView":1,"componentType":5126,"count":24,"type":"VEC3"},{"bufferView":2,"componentType":5123,"count":36,"type":"SCALAR"}]}
